<svg width="36" height="36" viewBox="0 0 36 36" fill="none" xmlns="http://www.w3.org/2000/svg">
<path d="M4.75488 11.1602L17.9999 18.8251L31.1548 11.2051" stroke="#3280FF" stroke-width="1.5" stroke-linecap="round" stroke-linejoin="round"/>
<path d="M18 32.4151V18.8101" stroke="#3280FF" stroke-width="1.5" stroke-linecap="round" stroke-linejoin="round"/>
<path d="M14.8949 3.72L6.88493 8.17505C5.06993 9.18005 3.58496 11.7 3.58496 13.77V22.2451C3.58496 24.3151 5.06993 26.835 6.88493 27.84L14.8949 32.2951C16.6049 33.2401 19.4099 33.2401 21.1199 32.2951L29.13 27.84C30.945 26.835 32.4299 24.3151 32.4299 22.2451V13.77C32.4299 11.7 30.945 9.18005 29.13 8.17505L21.1199 3.72C19.3949 2.76 16.6049 2.76 14.8949 3.72Z" stroke="#3280FF" stroke-width="1.5" stroke-linecap="round" stroke-linejoin="round"/>
<path d="M25.5001 19.8599V14.37L11.2651 6.1499" stroke="#3280FF" stroke-width="1.5" stroke-linecap="round" stroke-linejoin="round"/>
</svg>
