<svg width="32" height="32" viewBox="0 0 32 32" fill="none" xmlns="http://www.w3.org/2000/svg">
<path d="M27.8801 14.8267C27.8801 21.3467 23.1468 27.4534 16.6801 29.2401C16.2401 29.3601 15.7601 29.3601 15.3201 29.2401C8.85344 27.4534 4.12012 21.3467 4.12012 14.8267V8.97338C4.12012 7.88005 4.9468 6.64005 5.97347 6.22672L13.4001 3.18676C15.0668 2.50676 16.9468 2.50676 18.6134 3.18676L26.0401 6.22672C27.0535 6.64005 27.8935 7.88005 27.8935 8.97338L27.8801 14.8267Z" stroke="#3280FF" stroke-width="1.5" stroke-linecap="round" stroke-linejoin="round"/>
<path d="M16.0002 16.6668C17.4729 16.6668 18.6668 15.4729 18.6668 14.0002C18.6668 12.5274 17.4729 11.3335 16.0002 11.3335C14.5274 11.3335 13.3335 12.5274 13.3335 14.0002C13.3335 15.4729 14.5274 16.6668 16.0002 16.6668Z" stroke="#3280FF" stroke-width="1.5" stroke-miterlimit="10" stroke-linecap="round" stroke-linejoin="round"/>
<path d="M16 16.667V20.667" stroke="#3280FF" stroke-width="1.5" stroke-miterlimit="10" stroke-linecap="round" stroke-linejoin="round"/>
</svg>
