<svg width="18" height="18" viewBox="0 0 18 18" fill="none" xmlns="http://www.w3.org/2000/svg">
<path fill-rule="evenodd" clip-rule="evenodd" d="M15.4998 7.42822H2.13184C1.82134 7.42822 1.56934 7.17622 1.56934 6.86572C1.56934 6.55522 1.82134 6.30322 2.13184 6.30322H15.4998C15.8103 6.30322 16.0623 6.55522 16.0623 6.86572C16.0623 7.17622 15.8103 7.42822 15.4998 7.42822Z" fill="#494A50"/>
<path fill-rule="evenodd" clip-rule="evenodd" d="M12.1505 10.3574C11.84 10.3574 11.585 10.1054 11.585 9.79492C11.585 9.48442 11.8332 9.23242 12.1437 9.23242H12.1505C12.461 9.23242 12.713 9.48442 12.713 9.79492C12.713 10.1054 12.461 10.3574 12.1505 10.3574Z" fill="#494A50"/>
<path fill-rule="evenodd" clip-rule="evenodd" d="M8.82234 10.3574C8.51184 10.3574 8.25684 10.1054 8.25684 9.79492C8.25684 9.48442 8.50509 9.23242 8.81559 9.23242H8.82234C9.13284 9.23242 9.38484 9.48442 9.38484 9.79492C9.38484 10.1054 9.13284 10.3574 8.82234 10.3574Z" fill="#494A50"/>
<path fill-rule="evenodd" clip-rule="evenodd" d="M5.48813 10.3574C5.17763 10.3574 4.92188 10.1054 4.92188 9.79492C4.92188 9.48442 5.17088 9.23242 5.48138 9.23242H5.48813C5.79863 9.23242 6.05063 9.48442 6.05063 9.79492C6.05063 10.1054 5.79863 10.3574 5.48813 10.3574Z" fill="#494A50"/>
<path fill-rule="evenodd" clip-rule="evenodd" d="M12.1505 13.2725C11.84 13.2725 11.585 13.0205 11.585 12.71C11.585 12.3995 11.8332 12.1475 12.1437 12.1475H12.1505C12.461 12.1475 12.713 12.3995 12.713 12.71C12.713 13.0205 12.461 13.2725 12.1505 13.2725Z" fill="#494A50"/>
<path fill-rule="evenodd" clip-rule="evenodd" d="M8.82234 13.2725C8.51184 13.2725 8.25684 13.0205 8.25684 12.71C8.25684 12.3995 8.50509 12.1475 8.81559 12.1475H8.82234C9.13284 12.1475 9.38484 12.3995 9.38484 12.71C9.38484 13.0205 9.13284 13.2725 8.82234 13.2725Z" fill="#494A50"/>
<path fill-rule="evenodd" clip-rule="evenodd" d="M5.48813 13.2725C5.17763 13.2725 4.92188 13.0205 4.92188 12.71C4.92188 12.3995 5.17088 12.1475 5.48138 12.1475H5.48813C5.79863 12.1475 6.05063 12.3995 6.05063 12.71C6.05063 13.0205 5.79863 13.2725 5.48813 13.2725Z" fill="#494A50"/>
<path fill-rule="evenodd" clip-rule="evenodd" d="M11.8447 4.34325C11.5342 4.34325 11.2822 4.09125 11.2822 3.78075V1.3125C11.2822 1.002 11.5342 0.75 11.8447 0.75C12.1552 0.75 12.4072 1.002 12.4072 1.3125V3.78075C12.4072 4.09125 12.1552 4.34325 11.8447 4.34325Z" fill="#494A50"/>
<path fill-rule="evenodd" clip-rule="evenodd" d="M5.78613 4.34325C5.47563 4.34325 5.22363 4.09125 5.22363 3.78075V1.3125C5.22363 1.002 5.47563 0.75 5.78613 0.75C6.09663 0.75 6.34863 1.002 6.34863 1.3125V3.78075C6.34863 4.09125 6.09663 4.34325 5.78613 4.34325Z" fill="#494A50"/>
<mask id="mask0_567_1908" style="mask-type:luminance" maskUnits="userSpaceOnUse" x="1" y="1" width="16" height="16">
<path fill-rule="evenodd" clip-rule="evenodd" d="M1.5 1.93408H16.125V16.8748H1.5V1.93408Z" fill="white"/>
</mask>
<g mask="url(#mask0_567_1908)">
<path fill-rule="evenodd" clip-rule="evenodd" d="M5.64075 3.05908C3.696 3.05908 2.625 4.09633 2.625 5.97958V12.7663C2.625 14.6908 3.696 15.7498 5.64075 15.7498H11.9843C13.929 15.7498 15 14.7103 15 12.8233V5.97958C15.003 5.05333 14.754 4.33333 14.2597 3.83833C13.7512 3.32833 12.9675 3.05908 11.991 3.05908H5.64075ZM11.9843 16.8748H5.64075C3.087 16.8748 1.5 15.3006 1.5 12.7663V5.97958C1.5 3.48358 3.087 1.93408 5.64075 1.93408H11.991C13.2727 1.93408 14.3325 2.31808 15.0563 3.04333C15.759 3.74908 16.1287 4.76383 16.125 5.98108V12.8233C16.125 15.3223 14.538 16.8748 11.9843 16.8748Z" fill="#494A50"/>
</g>
</svg>
