<svg width="30" height="30" viewBox="0 0 30 30" fill="none" xmlns="http://www.w3.org/2000/svg">
<path d="M3.96191 9.2998L14.9994 15.6873L25.9619 9.33727" stroke="white" stroke-width="1.5" stroke-linecap="round" stroke-linejoin="round"/>
<path d="M14.999 27.0123V15.6748" stroke="white" stroke-width="1.5" stroke-linecap="round" stroke-linejoin="round"/>
<path d="M12.4123 3.1L5.73728 6.81254C4.22478 7.65004 2.9873 9.75002 2.9873 11.475V18.5375C2.9873 20.2625 4.22478 22.3625 5.73728 23.2L12.4123 26.9126C13.8373 27.7001 16.1748 27.7001 17.5998 26.9126L24.2748 23.2C25.7873 22.3625 27.0248 20.2625 27.0248 18.5375V11.475C27.0248 9.75002 25.7873 7.65004 24.2748 6.81254L17.5998 3.1C16.1623 2.3 13.8373 2.3 12.4123 3.1Z" stroke="white" stroke-width="1.5" stroke-linecap="round" stroke-linejoin="round"/>
<path d="M21.2502 16.55V11.9751L9.3877 5.125" stroke="white" stroke-width="1.5" stroke-linecap="round" stroke-linejoin="round"/>
</svg>
