<svg width="30" height="30" viewBox="0 0 30 30" fill="none" xmlns="http://www.w3.org/2000/svg">
<path d="M5.212 19.1252L10.8745 24.7877C13.1995 27.1127 16.9745 27.1127 19.312 24.7877L24.7995 19.3002C27.1245 16.9752 27.1245 13.2002 24.7995 10.8627L19.1245 5.21274C17.937 4.02524 16.2995 3.38774 14.6245 3.47524L8.3745 3.77524C5.8745 3.88774 3.887 5.87524 3.762 8.36274L3.462 14.6127C3.387 16.3002 4.0245 17.9377 5.212 19.1252Z" stroke="white" stroke-width="1.5" stroke-linecap="round" stroke-linejoin="round"/>
<path d="M11.875 15C13.6009 15 15 13.6009 15 11.875C15 10.1491 13.6009 8.75 11.875 8.75C10.1491 8.75 8.75 10.1491 8.75 11.875C8.75 13.6009 10.1491 15 11.875 15Z" stroke="white" stroke-width="1.5" stroke-linecap="round"/>
</svg>
